<svg xmlns="http://www.w3.org/2000/svg" viewBox="0 0 512 512" fill="none" overflow="visible" role="img" aria-label="КарПас">
  <!-- Верхняя часть lockup (без нижней строки); прозрачный фон -->
  <g transform="translate(256 256) scale(1.42) translate(-175.5 -27.5)">
    <path d="M268.398 1.406L291.782 53.132H277.056L272.542 43.364L246.938 43.29L242.276 53.132H227.328L228.234 51.2292L251.97 1.406H268.398ZM260.11 15.244L253.08 30.044H266.77L260.11 15.244Z" fill="white"/>
    <path d="M349.862 37.518C345.644 48.322 334.544 54.242 318.634 54.242C309.458 54.242 301.91 52.244 296.212 48.322C289.33 43.586 285.63 36.26 285.63 27.084C285.63 10.138 297.988 0 318.634 0C334.914 0 346.458 6.512 350.306 17.982L337.652 22.2C335.062 14.43 324.628 13.246 318.634 13.246C298.95 13.246 298.95 23.68 298.95 27.084C298.95 36.26 305.61 40.922 318.634 40.922C325.738 40.922 334.766 39.516 337.504 32.634L349.862 37.518Z" fill="white"/>
    <path d="M228.234 51.2292V1.406H203.777H179.32V14.726H214.914V53.132H227.328L228.234 51.2292Z" fill="white"/>
    <path d="M130.474 37.3325V52.1325H117.154V0.480469H156.966C162.812 0.480469 167.696 1.81247 171.47 4.40247C176.206 7.65847 178.796 12.7645 178.796 18.9065C178.796 30.3025 170.434 37.3325 156.966 37.3325H130.474ZM130.474 13.8005V24.0125H156.966C165.476 24.0125 165.476 20.6085 165.476 18.9065C165.476 17.4265 165.476 13.8005 156.966 13.8005H130.474Z" fill="#C782FF"/>
    <path d="M94.5934 0.40625L117.977 52.1323H103.251L98.7374 42.3643L73.1334 42.2903L68.4714 52.1323H53.5234L78.1654 0.40625H94.5934ZM86.3054 14.2443L79.2754 29.0443H92.9654L86.3054 14.2443Z" fill="#C782FF"/>
    <path d="M58.978 52.0583H37.074L13.32 33.3363V52.1323H0V0.40625H13.32V19.0543L36.334 0.480253H57.942L26.418 26.1583L58.978 52.0583Z" fill="#C782FF"/>
    <path d="M179.445 33C181.299 33.0722 181.91 33.8715 183.11 35.079L184.548 36.503L187.114 39.0704C187.565 39.5217 188.02 39.9825 188.471 40.432C189.372 41.3312 189.964 42.2726 189.919 43.6013C189.883 44.6546 189.428 45.6073 188.685 46.3481C188.521 46.5096 188.208 46.9142 188.034 47.029C187.778 47.1978 187.403 47.697 187.201 47.8253C187.197 47.8067 187.165 47.7027 187.162 47.7013C186.967 47.5915 186.61 47.3941 186.431 47.296L184.014 45.9916C183.552 45.7393 183.101 45.468 182.633 45.2231L180.881 44.2918C180.393 44.0329 179.971 43.8373 179.512 43.5225L179.299 43.6173C178.951 43.8824 178.514 44.0593 178.127 44.273L174.423 46.2957C174.029 46.5093 172.008 47.5987 171.803 47.8706C171.77 47.8501 171.418 47.5267 171.372 47.4815C170.184 46.3006 169.036 45.4251 169 43.5855C168.988 42.8817 169.227 41.9348 169.666 41.3654C170.335 40.499 171.255 39.6676 172.026 38.8933L175.017 35.8882C175.753 35.1577 176.553 34.2257 177.395 33.6199C177.892 33.262 178.83 33.0174 179.445 33Z" fill="#8D8698"/>
    <path d="M171.803 47.8706C171.77 47.8501 171.418 47.5267 171.372 47.4815C170.184 46.3006 169.036 45.4251 169 43.5855C168.988 42.8817 169.227 41.9348 169.666 41.3654C170.335 40.499 171.255 39.6676 172.026 38.8933L175.017 35.8882C175.753 35.1577 176.553 34.2257 177.395 33.6199C177.892 33.262 178.83 33.0174 179.445 33C179.469 34.439 179.441 35.8816 179.439 37.3212L179.462 43.4255L179.299 43.6173C178.951 43.8824 178.514 44.0593 178.127 44.273L174.423 46.2957C174.029 46.5093 172.008 47.5987 171.803 47.8706Z" fill="#A63BFB"/>
    <path d="M179.299 43.6183L179.511 43.5234C179.97 43.8382 180.392 44.0339 180.881 44.2927L182.632 45.224C183.1 45.4689 183.551 45.7402 184.013 45.9926L186.43 47.297C186.609 47.3951 186.966 47.5924 187.162 47.7022C187.164 47.7036 187.197 47.8076 187.2 47.8263C186.898 48.1503 186.579 48.4448 186.263 48.7539L184.875 50.1387C184.445 50.5744 184.027 51.0085 183.591 51.435C182.914 52.0988 182.214 52.9785 181.402 53.4677C179.893 54.3772 177.978 54.0836 176.729 52.8688C176.185 52.3394 175.636 51.806 175.132 51.2365C174.515 50.6004 173.858 49.9848 173.242 49.3499L172.209 48.287C172.1 48.1765 171.912 47.9674 171.803 47.8715C172.007 47.5997 174.028 46.5102 174.423 46.2966L178.127 44.2739C178.513 44.0602 178.95 43.8834 179.299 43.6183Z" fill="#1A968F"/>
  </g>
</svg>
