<svg xmlns="http://www.w3.org/2000/svg" width="351" height="84" viewBox="0 0 351 84" fill="none">

  <!-- KAPA wordmark — white, refined weight -->
  <path d="M268.398 1.406L291.782 53.132H277.056L272.542 43.364L246.938 43.29L242.276 53.132H227.328L228.234 51.2292L251.97 1.406H268.398ZM260.11 15.244L253.08 30.044H266.77L260.11 15.244Z" fill="#F0F0F0"/>
  <path d="M349.862 37.518C345.644 48.322 334.544 54.242 318.634 54.242C309.458 54.242 301.91 52.244 296.212 48.322C289.33 43.586 285.63 36.26 285.63 27.084C285.63 10.138 297.988 0 318.634 0C334.914 0 346.458 6.512 350.306 17.982L337.652 22.2C335.062 14.43 324.628 13.246 318.634 13.246C298.95 13.246 298.95 23.68 298.95 27.084C298.95 36.26 305.61 40.922 318.634 40.922C325.738 40.922 334.766 39.516 337.504 32.634L349.862 37.518Z" fill="#F0F0F0"/>
  <path d="M228.234 51.2292V1.406H203.777H179.32V14.726H214.914V53.132H227.328L228.234 51.2292Z" fill="#F0F0F0"/>

  <!-- AC wordmark — warm gold accent -->
  <path d="M130.474 37.3325V52.1325H117.154V0.480469H156.966C162.812 0.480469 167.696 1.81247 171.47 4.40247C176.206 7.65847 178.796 12.7645 178.796 18.9065C178.796 30.3025 170.434 37.3325 156.966 37.3325H130.474ZM130.474 13.8005V24.0125H156.966C165.476 24.0125 165.476 20.6085 165.476 18.9065C165.476 17.4265 165.476 13.8005 156.966 13.8005H130.474Z" fill="#C8A96E"/>
  <path d="M94.5934 0.40625L117.977 52.1323H103.251L98.7374 42.3643L73.1334 42.2903L68.4714 52.1323H53.5234L78.1654 0.40625H94.5934ZM86.3054 14.2443L79.2754 29.0443H92.9654L86.3054 14.2443Z" fill="#C8A96E"/>
  <path d="M58.978 52.0583H37.074L13.32 33.3363V52.1323H0V0.40625H13.32V19.0543L36.334 0.480253H57.942L26.418 26.1583L58.978 52.0583Z" fill="#C8A96E"/>

  <!-- Logo mark: simplified, warm glow palette -->
  <!-- base shape — muted warm grey -->
  <path d="M179.445 33C181.299 33.0722 181.91 33.8715 183.11 35.079L184.548 36.503L187.114 39.0704C187.565 39.5217 188.02 39.9825 188.471 40.432C189.372 41.3312 189.964 42.2726 189.919 43.6013C189.883 44.6546 189.428 45.6073 188.685 46.3481C188.521 46.5096 188.208 46.9142 188.034 47.029C187.778 47.1978 187.403 47.697 187.201 47.8253C187.197 47.8067 187.165 47.7027 187.162 47.7013C186.967 47.5915 186.61 47.3941 186.431 47.296L184.014 45.9916C183.552 45.7393 183.101 45.468 182.633 45.2231L180.881 44.2918C180.393 44.0329 179.971 43.8373 179.512 43.5225L179.299 43.6173C178.951 43.8824 178.514 44.0593 178.127 44.273L174.423 46.2957C174.029 46.5093 172.008 47.5987 171.803 47.8706C171.77 47.8501 171.418 47.5267 171.372 47.4815C170.184 46.3006 169.036 45.4251 169 43.5855C168.988 42.8817 169.227 41.9348 169.666 41.3654C170.335 40.499 171.255 39.6676 172.026 38.8933L175.017 35.8882C175.753 35.1577 176.553 34.2257 177.395 33.6199C177.892 33.262 178.83 33.0174 179.445 33Z" fill="#3a3530"/>
  <!-- left facet — gold -->
  <path d="M171.803 47.8706C171.77 47.8501 171.418 47.5267 171.372 47.4815C170.184 46.3006 169.036 45.4251 169 43.5855C168.988 42.8817 169.227 41.9348 169.666 41.3654C170.335 40.499 171.255 39.6676 172.026 38.8933L175.017 35.8882C175.753 35.1577 176.553 34.2257 177.395 33.6199C177.892 33.262 178.83 33.0174 179.445 33C179.469 34.439 179.441 35.8816 179.439 37.3212L179.462 43.4255L179.299 43.6173C178.951 43.8824 178.514 44.0593 178.127 44.273L174.423 46.2957C174.029 46.5093 172.008 47.5987 171.803 47.8706Z" fill="#C8A96E"/>
  <!-- right facet — dimmed gold -->
  <path d="M179.299 43.6183L179.511 43.5234C179.97 43.8382 180.392 44.0339 180.881 44.2927L182.632 45.224C183.1 45.4689 183.551 45.7402 184.013 45.9926L186.43 47.297C186.609 47.3951 186.966 47.5924 187.162 47.7022C187.164 47.7036 187.197 47.8076 187.2 47.8263C186.898 48.1503 186.579 48.4448 186.263 48.7539L184.875 50.1387C184.445 50.5744 184.027 51.0085 183.591 51.435C182.914 52.0988 182.214 52.9785 181.402 53.4677C179.893 54.3772 177.978 54.0836 176.729 52.8688C176.185 52.3394 175.636 51.806 175.132 51.2365C174.515 50.6004 173.858 49.9848 173.242 49.3499L172.209 48.287C172.1 48.1765 171.912 47.9674 171.803 47.8715C172.007 47.5997 174.028 46.5102 174.423 46.2966L178.127 44.2739C178.513 44.0602 178.95 43.8834 179.299 43.6183Z" fill="#8a7248"/>

  <!-- Thin accent rule between wordmark and subtitle -->
  <line x1="0" y1="60" x2="80" y2="60" stroke="#C8A96E" stroke-width="0.5" opacity="0.6"/>

  <!-- Subtitle — muted, spaced caps -->
  <path d="M2.28711 67.5723H5.32882V79.0096H5.51768L15.8754 67.5723H18.7183V83.1464H15.6468V71.7244H15.4579L5.12007 83.1464H2.28711V67.5723Z" fill="#888888"/>
  <path d="M40.1071 72.6369H37.0058C36.8865 72.13 36.6645 71.6838 36.3398 71.2985C36.0151 70.9132 35.6175 70.5862 35.147 70.3175C34.6765 70.0489 34.1496 69.8461 33.5665 69.7092C32.9899 69.5723 32.377 69.5039 31.7275 69.5039C30.5546 69.5039 29.5042 69.7295 28.5765 70.1807C27.6554 70.6319 26.9264 71.2935 26.3896 72.1655C25.8595 73.0374 25.5944 74.1021 25.5944 75.3594C25.5944 76.6268 25.8595 77.6965 26.3896 78.5685C26.9264 79.4405 27.6587 80.0996 28.5864 80.5457C29.5142 80.9918 30.5579 81.2149 31.7176 81.2149C32.3604 81.2149 32.9701 81.149 33.5466 81.0172C34.1298 80.8803 34.6566 80.68 35.1271 80.4164C35.5976 80.1528 35.9952 79.8309 36.3199 79.4506C36.6513 79.0653 36.8799 78.6243 37.0058 78.1274L40.1071 78.135C39.9415 78.9006 39.6201 79.6053 39.1429 80.2491C38.6724 80.8879 38.0661 81.4405 37.3239 81.9069C36.5883 82.3682 35.7467 82.7257 34.7991 82.9791C33.8514 83.2326 32.8176 83.3594 31.6977 83.3594C29.935 83.3594 28.3644 83.04 26.9861 82.4012C25.6077 81.7573 24.5209 80.8372 23.7257 79.6407C22.9371 78.4443 22.5428 77.0172 22.5428 75.3594C22.5428 73.6965 22.9404 72.2694 23.7356 71.078C24.5308 69.8816 25.6176 68.9639 26.996 68.3252C28.3744 67.6813 29.9416 67.3594 31.6977 67.3594C32.7779 67.3594 33.7852 67.4785 34.7195 67.7168C35.6606 67.95 36.5055 68.2947 37.2543 68.751C38.0031 69.2022 38.6227 69.7548 39.1131 70.4088C39.6035 71.0577 39.9348 71.8004 40.1071 72.6369Z" fill="#888888"/>
  <path d="M42.7786 69.5951V67.5723H58.5338V69.5951H52.182V83.1464H49.1204V69.5951H42.7786Z" fill="#888888"/>
  <path d="M78.8243 75.3594C78.8243 77.0222 78.4267 78.4519 77.6315 79.6483C76.8362 80.8397 75.7461 81.7573 74.3611 82.4012C72.9827 83.04 71.4155 83.3594 69.6594 83.3594C67.8967 83.3594 66.3228 83.04 64.9378 82.4012C63.5594 81.7573 62.4726 80.8372 61.6774 79.6407C60.8822 78.4443 60.4846 77.0172 60.4846 75.3594C60.4846 73.6965 60.8822 72.2694 61.6774 71.078C62.4726 69.8816 63.5594 68.9639 64.9378 68.3252C66.3228 67.6813 67.8967 67.3594 69.6594 67.3594C71.4155 67.3594 72.9827 67.6813 74.3611 68.3252C75.7461 68.9639 76.8362 69.8816 77.6315 71.078C78.4267 72.2694 78.8243 73.6965 78.8243 75.3594ZM75.7826 75.3594C75.7826 74.0919 75.5142 73.0248 74.9774 72.1579C74.4473 71.2859 73.7183 70.6268 72.7906 70.1807C71.8694 69.7295 70.8257 69.5039 69.6594 69.5039C68.4865 69.5039 67.4394 69.7295 66.5183 70.1807C65.5972 70.6268 64.8682 71.2859 64.3314 72.1579C63.8013 73.0248 63.5362 74.0919 63.5362 75.3594C63.5362 76.6268 63.8013 77.6965 64.3314 78.5685C64.8682 79.4354 65.5972 80.0945 66.5183 80.5457C67.4394 80.9918 68.4865 81.2149 69.6594 81.2149C70.8257 81.2149 71.8694 80.9918 72.7906 80.5457C73.7183 80.0945 74.4473 79.4354 74.9774 78.5685C75.5142 77.6965 75.7826 76.6268 75.7826 75.3594Z" fill="#888888"/>
  <path d="M82.6537 83.1464V67.5723H89.9101C91.4939 67.5723 92.806 67.7928 93.8464 68.2339C94.8868 68.675 95.6655 69.2783 96.1824 70.0438C96.6993 70.8042 96.9577 71.661 96.9577 72.6141C96.9577 73.5723 96.696 74.4342 96.1724 75.1997C95.6555 75.9601 94.8736 76.5634 93.8265 77.0096C92.7861 77.4506 91.4773 77.6712 89.9002 77.6712H84.9102V75.6788H89.6218C90.6225 75.6788 91.4343 75.547 92.0572 75.2833C92.6801 75.0146 93.1374 74.6496 93.4289 74.1883C93.7205 73.7269 93.8663 73.2022 93.8663 72.6141C93.8663 72.026 93.7205 71.5039 93.4289 71.0476C93.1374 70.5913 92.6768 70.2339 92.0472 69.9753C91.4243 69.7168 90.6026 69.5875 89.5821 69.5875H85.7253V83.1464H82.6537Z" fill="#888888"/>
  <path d="M100.559 67.5723H103.6V79.0096H103.789L114.147 67.5723H116.99V83.1464H113.918V71.7244H113.729L103.392 83.1464H100.559V67.5723Z" fill="#888888"/>
  <path d="M135.903 83.1464H132.822V69.5875H128.965C127.958 69.5875 127.14 69.7041 126.51 69.9373C125.88 70.1655 125.42 70.495 125.128 70.9259C124.837 71.3568 124.691 71.8663 124.691 72.4544C124.691 73.0374 124.837 73.5368 125.128 73.9525C125.42 74.3682 125.877 74.6851 126.5 74.9031C127.123 75.1211 127.935 75.2301 128.935 75.2301H134.154V77.2529H128.647C127.077 77.2529 125.768 77.0527 124.721 76.6521C123.68 76.2516 122.898 75.6914 122.375 74.9715C121.858 74.2466 121.6 73.4075 121.6 72.4544C121.6 71.4963 121.858 70.6522 122.375 69.9221C122.892 69.187 123.67 68.6116 124.711 68.1959C125.758 67.7802 127.067 67.5723 128.637 67.5723H135.903V83.1464ZM125.854 76.1198H129.253L124.313 83.1464H120.824L125.854 76.1198Z" fill="#888888"/>
  <path d="M147.794 83.1464V67.5723H155.25C156.694 67.5723 157.89 67.7548 158.838 68.1198C159.786 68.4798 160.495 68.969 160.965 69.5875C161.436 70.2009 161.671 70.893 161.671 71.6636C161.671 72.3125 161.515 72.86 161.204 73.3061C160.892 73.7472 160.475 74.1021 159.951 74.3708C159.434 74.6344 158.865 74.8271 158.242 74.9487V75.1008C158.918 75.1262 159.577 75.2935 160.22 75.6027C160.869 75.9069 161.406 76.3404 161.83 76.9031C162.254 77.4658 162.466 78.1502 162.466 78.9563C162.466 79.7523 162.221 80.4671 161.731 81.1008C161.247 81.7295 160.498 82.2288 159.484 82.5989C158.47 82.9639 157.175 83.1464 155.598 83.1464H147.794ZM150.866 81.1312H155.299C156.77 81.1312 157.824 80.9132 158.46 80.4772C159.096 80.0413 159.415 79.4963 159.415 78.8423C159.415 78.3505 159.252 77.8993 158.927 77.4887C158.603 77.078 158.139 76.751 157.536 76.5077C156.939 76.2643 156.23 76.1426 155.409 76.1426H150.866V81.1312ZM150.866 74.3099H154.981C155.67 74.3099 156.29 74.2086 156.84 74.0058C157.397 73.803 157.837 73.5191 158.162 73.1541C158.493 72.784 158.659 72.348 158.659 71.8461C158.659 71.2022 158.364 70.6623 157.774 70.2263C157.185 69.7903 156.28 69.5723 155.061 69.5723H150.866V74.3099Z" fill="#888888"/>
  <path d="M167.829 83.1464H164.569L171.894 67.5723H175.443L182.769 83.1464H179.509L173.753 70.4012H173.594L167.829 83.1464ZM168.376 77.0476H178.952V79.0248H168.376V77.0476Z" fill="#888888"/>
  <path d="M185.977 67.5723H189.019V81.1084H195.739V67.5723H198.78V81.1084H205.48V67.5723H208.512V83.1464H185.977V67.5723Z" fill="#888888"/>
  <path d="M213.263 83.1464V67.5723H226.026V69.5951H216.335V74.3404H225.36V76.3556H216.335V81.1236H226.146V83.1464H213.263Z" fill="#888888"/>
  <path d="M242.823 67.5723V69.5951H233.201V83.1464H230.129V67.5723H242.823Z" fill="#888888"/>
  <path d="M263.093 75.3594C263.093 77.0222 262.696 78.4519 261.901 79.6483C261.105 80.8397 260.015 81.7573 258.63 82.4012C257.252 83.04 255.685 83.3594 253.929 83.3594C252.166 83.3594 250.592 83.04 249.207 82.4012C247.829 81.7573 246.742 80.8372 245.947 79.6407C245.151 78.4443 244.754 77.0172 244.754 75.3594C244.754 73.6965 245.151 72.2694 245.947 71.078C246.742 69.8816 247.829 68.9639 249.207 68.3252C250.592 67.6813 252.166 67.3594 253.929 67.3594C255.685 67.3594 257.252 67.6813 258.63 68.3252C260.015 68.9639 261.105 69.8816 261.901 71.078C262.696 72.2694 263.093 73.6965 263.093 75.3594ZM260.052 75.3594C260.052 74.0919 259.783 73.0248 259.247 72.1579C258.716 71.2859 257.988 70.6268 257.06 70.1807C256.139 69.7295 255.095 69.5039 253.929 69.5039C252.756 69.5039 251.709 69.7295 250.787 70.1807C249.866 70.6268 249.137 71.2859 248.601 72.1579C248.071 73.0248 247.805 74.0919 247.805 75.3594C247.805 76.6268 248.071 77.6965 248.601 78.5685C249.137 79.4354 249.866 80.0945 250.787 80.5457C251.709 80.9918 252.756 81.2149 253.929 81.2149C255.095 81.2149 256.139 80.9918 257.06 80.5457C257.988 80.0945 258.716 79.4354 259.247 78.5685C259.783 77.6965 260.052 76.6268 260.052 75.3594Z" fill="#888888"/>
  <path d="M276.051 83.1464H272.79L280.116 67.5723H283.665L290.991 83.1464H287.73L281.975 70.4012H281.816L276.051 83.1464ZM276.597 77.0476H287.174V79.0248H276.597V77.0476Z" fill="#888888"/>
  <path d="M293.931 83.1464V67.5723H301.386C302.83 67.5723 304.026 67.7548 304.974 68.1198C305.922 68.4798 306.631 68.969 307.101 69.5875C307.572 70.2009 307.807 70.893 307.807 71.6636C307.807 72.3125 307.651 72.86 307.34 73.3061C307.028 73.7472 306.611 74.1021 306.087 74.3708C305.571 74.6344 305.001 74.8271 304.378 74.9487V75.1008C305.054 75.1262 305.713 75.2935 306.356 75.6027C307.005 75.9069 307.542 76.3404 307.966 76.9031C308.39 77.4658 308.602 78.1502 308.602 78.9563C308.602 79.7523 308.357 80.4671 307.867 81.1008C307.383 81.7295 306.634 82.2288 305.62 82.5989C304.606 82.9639 303.311 83.1464 301.734 83.1464H293.931ZM297.002 81.1312H301.435C302.907 81.1312 303.96 80.9132 304.596 80.4772C305.233 80.0413 305.551 79.4963 305.551 78.8423C305.551 78.3505 305.388 77.8993 305.064 77.4887C304.739 77.078 304.275 76.751 303.672 76.5077C303.076 76.2643 302.366 76.1426 301.545 76.1426H297.002V81.1312ZM297.002 74.3099H301.117C301.806 74.3099 302.426 74.2086 302.976 74.0058C303.533 73.803 303.973 73.5191 304.298 73.1541C304.629 72.784 304.795 72.348 304.795 71.8461C304.795 71.2022 304.5 70.6623 303.91 70.2263C303.321 69.7903 302.416 69.5723 301.197 69.5723H297.002V74.3099Z" fill="#888888"/>
  <path d="M311.241 69.5951V67.5723H326.997V69.5951H320.645V83.1464H317.583V69.5951H311.241Z" fill="#888888"/>
  <path d="M347.287 75.3594C347.287 77.0222 346.889 78.4519 346.094 79.6483C345.299 80.8397 344.209 81.7573 342.824 82.4012C341.446 83.04 339.878 83.3594 338.122 83.3594C336.359 83.3594 334.786 83.04 333.401 82.4012C332.022 81.7573 330.935 80.8372 330.14 79.6407C329.345 78.4443 328.947 77.0172 328.947 75.3594C328.947 73.6965 329.345 72.2694 330.14 71.078C330.935 69.8816 332.022 68.9639 333.401 68.3252C334.786 67.6813 336.359 67.3594 338.122 67.3594C339.878 67.3594 341.446 67.6813 342.824 68.3252C344.209 68.9639 345.299 69.8816 346.094 71.078C346.889 72.2694 347.287 73.6965 347.287 75.3594ZM344.245 75.3594C344.245 74.0919 343.977 73.0248 343.44 72.1579C342.91 71.2859 342.181 70.6268 341.253 70.1807C340.332 69.7295 339.289 69.5039 338.122 69.5039C336.949 69.5039 335.902 69.7295 334.981 70.1807C334.06 70.6268 333.331 71.2859 332.794 72.1579C332.264 73.0248 331.999 74.0919 331.999 75.3594C331.999 76.6268 332.264 77.6965 332.794 78.5685C333.331 79.4354 334.06 80.0945 334.981 80.5457C335.902 80.9918 336.949 81.2149 338.122 81.2149C339.289 81.2149 340.332 80.9918 341.253 80.5457C342.181 80.0945 342.91 79.4354 343.44 78.5685C343.977 77.6965 344.245 76.6268 344.245 75.3594Z" fill="#888888"/>

</svg>